<svg width="126" height="67" viewBox="0 0 126 67" fill="none" xmlns="http://www.w3.org/2000/svg">
<g clip-path="url(#clip0_1_26)">
<rect width="78.1721" height="16.2094" transform="translate(23.1992 50.2906)" fill="#ED145B"/>
<path d="M33.1109 63.3953V52.4862H37.6599C38.4767 52.4862 39.1603 52.6016 39.7107 52.8324C40.2647 53.0633 40.6802 53.3864 40.9572 53.8019C41.2377 54.2174 41.378 54.6986 41.378 55.2454C41.378 55.6609 41.291 56.032 41.117 56.3587C40.9429 56.6819 40.7032 56.95 40.3978 57.163C40.0925 57.3761 39.7391 57.5253 39.3378 57.6105V57.717C39.7782 57.7383 40.1848 57.8573 40.5577 58.0739C40.9341 58.2905 41.2359 58.5924 41.4632 58.9795C41.6905 59.363 41.8041 59.8175 41.8041 60.3431C41.8041 60.929 41.655 61.4528 41.3567 61.9145C41.0584 62.3726 40.6269 62.7348 40.0623 63.0011C39.4976 63.2639 38.8123 63.3953 38.0062 63.3953H33.1109ZM35.7476 61.2699H37.3776C37.9493 61.2699 38.3702 61.1616 38.64 60.945C38.9135 60.7284 39.0502 60.4265 39.0502 60.0395C39.0502 59.7589 38.9845 59.5175 38.8531 59.315C38.7217 59.1091 38.5353 58.951 38.2938 58.841C38.0523 58.7273 37.7629 58.6705 37.4255 58.6705H35.7476V61.2699ZM35.7476 56.9713H37.2072C37.4948 56.9713 37.7505 56.9233 37.9742 56.8275C38.1979 56.7316 38.3719 56.5931 38.4962 56.412C38.6241 56.2309 38.688 56.0125 38.688 55.7568C38.688 55.391 38.5584 55.1034 38.2991 54.8939C38.0399 54.6844 37.6901 54.5796 37.2498 54.5796H35.7476V56.9713ZM58.6184 57.9407C58.6184 59.141 58.3876 60.1584 57.9259 60.993C57.4643 61.8275 56.8393 62.4613 56.0509 62.8946C55.2661 63.3278 54.3854 63.5444 53.4089 63.5444C52.4287 63.5444 51.5463 63.326 50.7615 62.8893C49.9767 62.4525 49.3535 61.8186 48.8918 60.9876C48.4337 60.1531 48.2047 59.1375 48.2047 57.9407C48.2047 56.7405 48.4337 55.7231 48.8918 54.8885C49.3535 54.054 49.9767 53.4202 50.7615 52.9869C51.5463 52.5537 52.4287 52.3371 53.4089 52.3371C54.3854 52.3371 55.2661 52.5537 56.0509 52.9869C56.8393 53.4202 57.4643 54.054 57.9259 54.8885C58.3876 55.7231 58.6184 56.7405 58.6184 57.9407ZM55.9231 57.9407C55.9231 57.2305 55.8219 56.6304 55.6194 56.1403C55.4206 55.6503 55.1329 55.2792 54.7565 55.027C54.3836 54.7749 53.9344 54.6488 53.4089 54.6488C52.8868 54.6488 52.4376 54.7749 52.0612 55.027C51.6848 55.2792 51.3954 55.6503 51.1929 56.1403C50.9941 56.6304 50.8947 57.2305 50.8947 57.9407C50.8947 58.651 50.9941 59.2511 51.1929 59.7412C51.3954 60.2312 51.6848 60.6023 52.0612 60.8545C52.4376 61.1066 52.8868 61.2327 53.4089 61.2327C53.9344 61.2327 54.3836 61.1066 54.7565 60.8545C55.1329 60.6023 55.4206 60.2312 55.6194 59.7412C55.8219 59.2511 55.9231 58.651 55.9231 57.9407ZM75.7043 57.9407C75.7043 59.141 75.4735 60.1584 75.0118 60.993C74.5502 61.8275 73.9252 62.4613 73.1368 62.8946C72.352 63.3278 71.4714 63.5444 70.4948 63.5444C69.5147 63.5444 68.6322 63.326 67.8474 62.8893C67.0626 62.4525 66.4394 61.8186 65.9777 60.9876C65.5197 60.1531 65.2906 59.1375 65.2906 57.9407C65.2906 56.7405 65.5197 55.7231 65.9777 54.8885C66.4394 54.054 67.0626 53.4202 67.8474 52.9869C68.6322 52.5537 69.5147 52.3371 70.4948 52.3371C71.4714 52.3371 72.352 52.5537 73.1368 52.9869C73.9252 53.4202 74.5502 54.054 75.0118 54.8885C75.4735 55.7231 75.7043 56.7405 75.7043 57.9407ZM73.009 57.9407C73.009 57.2305 72.9078 56.6304 72.7054 56.1403C72.5065 55.6503 72.2189 55.2792 71.8425 55.027C71.4696 54.7749 71.0204 54.6488 70.4948 54.6488C69.9728 54.6488 69.5236 54.7749 69.1471 55.027C68.7707 55.2792 68.4813 55.6503 68.2789 56.1403C68.08 56.6304 67.9806 57.2305 67.9806 57.9407C67.9806 58.651 68.08 59.2511 68.2789 59.7412C68.4813 60.2312 68.7707 60.6023 69.1471 60.8545C69.5236 61.1066 69.9728 61.2327 70.4948 61.2327C71.0204 61.2327 71.4696 61.1066 71.8425 60.8545C72.2189 60.6023 72.5065 60.2312 72.7054 59.7412C72.9078 59.2511 73.009 58.651 73.009 57.9407ZM82.4937 63.3953V52.4862H85.1304V57.0991H85.2743L88.8804 52.4862H91.9859L88.1187 57.3548L92.0552 63.3953H88.9018L86.1851 59.1073L85.1304 60.439V63.3953H82.4937Z" fill="black"/>
</g>
<path d="M27.1741 3.35077H2V35.7696" stroke="black" stroke-width="4"/>
<path d="M11.2747 19.8979H20.8806" stroke="black" stroke-width="4"/>
<path d="M37.1112 3.68848V36.1073" stroke="black" stroke-width="4"/>
<path d="M45.3922 35.7697L63.9723 6.89013C64.7451 5.68905 66.4914 5.66163 67.3015 6.83786L76.5285 20.2356" stroke="black" stroke-width="4"/>
<path d="M78 23L86 35" stroke="black" stroke-width="4"/>
<path d="M94.084 2V35.7696" stroke="black" stroke-width="4"/>
<path d="M92 3C102.6 3 122.619 1.46876 123.149 13.0855C123.149 23.3515 110.783 24.2295 104.6 23.5541" stroke="black" stroke-width="4"/>
<defs>
<clipPath id="clip0_1_26">
<rect width="78.1721" height="16.2094" fill="white" transform="translate(23.1992 50.2906)"/>
</clipPath>
</defs>
</svg>
